<svg width="18" height="18" viewBox="0 0 18 18" fill="none" xmlns="http://www.w3.org/2000/svg">
<path d="M8.99969 11.3035C8.27169 11.3035 7.67969 10.7115 7.67969 9.9835V8.00752C7.67969 7.27952 8.27169 6.6875 8.99969 6.6875C9.72769 6.6875 10.3197 7.27952 10.3197 8.00752V9.9835C10.3197 10.7115 9.72769 11.3035 8.99969 11.3035Z" stroke="#FFFFFF" stroke-width="1.5" stroke-linecap="round"/>
<path d="M12.984 10.1726C12.824 12.2366 11.096 13.8526 9 13.8526C6.792 13.8526 5 12.0606 5 9.85264V8.14062C5 5.93262 6.792 4.14062 9 4.14062C11.072 4.14062 12.776 5.71662 12.976 7.73262" stroke="#FFFFFF" stroke-width="1.5" stroke-linecap="round"/>
<path d="M11.3984 1H12.9984C15.3984 1 16.9984 2.6 16.9984 5V6.6" stroke="#FFFFFF" stroke-width="1.5" stroke-miterlimit="10" stroke-linecap="round" stroke-linejoin="round"/>
<path d="M1 6.6V5C1 2.6 2.6 1 5 1H6.6" stroke="#FFFFFF" stroke-width="1.5" stroke-miterlimit="10" stroke-linecap="round" stroke-linejoin="round"/>
<path d="M11.3984 16.9984H12.9984C15.3984 16.9984 16.9984 15.3984 16.9984 12.9984V11.3984" stroke="#FFFFFF" stroke-width="1.5" stroke-miterlimit="10" stroke-linecap="round" stroke-linejoin="round"/>
<path d="M1 11.3984V12.9984C1 15.3984 2.6 16.9984 5 16.9984H6.6" stroke="#FFFFFF" stroke-width="1.5" stroke-miterlimit="10" stroke-linecap="round" stroke-linejoin="round"/>
</svg>
