<svg width="28" height="20" viewBox="0 0 28 20" fill="none" xmlns="http://www.w3.org/2000/svg">
<path d="M26 0H2C1.46957 0 0.960859 0.210714 0.585786 0.585786C0.210714 0.960859 0 1.46957 0 2V18C0 18.5304 0.210714 19.0391 0.585786 19.4142C0.960859 19.7893 1.46957 20 2 20H26C26.5304 20 27.0391 19.7893 27.4142 19.4142C27.7893 19.0391 28 18.5304 28 18V2C28 1.46957 27.7893 0.960859 27.4142 0.585786C27.0391 0.210714 26.5304 0 26 0ZM26 18H2V2H26V18Z" fill="white"/>
<path d="M16 8H23C23.2652 8 23.5196 7.89464 23.7071 7.70711C23.8946 7.51957 24 7.26522 24 7C24 6.73478 23.8946 6.48043 23.7071 6.29289C23.5196 6.10536 23.2652 6 23 6H16C15.7348 6 15.4804 6.10536 15.2929 6.29289C15.1054 6.48043 15 6.73478 15 7C15 7.26522 15.1054 7.51957 15.2929 7.70711C15.4804 7.89464 15.7348 8 16 8Z" fill="white"/>
<path d="M16 12H20C20.2652 12 20.5196 11.8946 20.7071 11.7071C20.8946 11.5196 21 11.2652 21 11C21 10.7348 20.8946 10.4804 20.7071 10.2929C20.5196 10.1054 20.2652 10 20 10H16C15.7348 10 15.4804 10.1054 15.2929 10.2929C15.1054 10.4804 15 10.7348 15 11C15 11.2652 15.1054 11.5196 15.2929 11.7071C15.4804 11.8946 15.7348 12 16 12Z" fill="white"/>
<path d="M5 15C5.26522 15 5.51957 14.8946 5.70711 14.7071C5.89464 14.5196 6 14.2652 6 14C6 13.72 6.88 13.11 7.28 13H7.39C7.80297 12.9113 8.18355 12.7107 8.49 12.42C8.81891 12.4968 9.16109 12.4968 9.49 12.42C9.79645 12.7107 10.177 12.9113 10.59 13H10.66C11.09 13.16 11.94 13.77 11.98 14.05C11.98 14.3152 12.0854 14.5696 12.2729 14.7571C12.4604 14.9446 12.7148 15.05 12.98 15.05C13.2452 15.05 13.4996 14.9446 13.6871 14.7571C13.8746 14.5696 13.98 14.3152 13.98 14.05C13.98 12.28 11.61 11.19 11.26 11.05C11.8276 10.1391 12.0871 9.06974 12 8C11.9613 7.21687 11.6328 6.47611 11.0783 5.92168C10.5239 5.36725 9.78313 5.03874 9 5C8.21687 5.03874 7.47611 5.36725 6.92168 5.92168C6.36725 6.47611 6.03874 7.21687 6 8C5.92374 9.05305 6.18278 10.1032 6.74 11C6.37 11.14 4 12.23 4 14C4 14.2652 4.10536 14.5196 4.29289 14.7071C4.48043 14.8946 4.73478 15 5 15ZM9 7C9.25297 7.03473 9.48763 7.15126 9.66819 7.33181C9.84874 7.51237 9.96527 7.74703 10 8C10.0668 8.41061 10.0374 8.83112 9.91424 9.22847C9.79104 9.62583 9.57736 9.98919 9.29 10.29C9.25192 10.3281 9.20672 10.3583 9.15696 10.3789C9.1072 10.3996 9.05386 10.4102 9 10.4102C8.94614 10.4102 8.8928 10.3996 8.84304 10.3789C8.79328 10.3583 8.74808 10.3281 8.71 10.29C8.42199 9.98962 8.20788 9.6263 8.08464 9.22882C7.96141 8.83134 7.93243 8.41062 8 8C8.03473 7.74703 8.15126 7.51237 8.33181 7.33181C8.51237 7.15126 8.74703 7.03473 9 7Z" fill="white"/>
</svg>
