<svg width="20" height="16" viewBox="0 0 20 16" fill="none" xmlns="http://www.w3.org/2000/svg">
<path d="M12.7935 2.01094L14.0357 4.49534C14.2031 4.83893 14.6524 5.1649 15.0312 5.23538L17.2778 5.60539C18.7138 5.84326 19.0486 6.88284 18.0178 7.92242L16.2646 9.6756C15.9739 9.96633 15.8065 10.539 15.9034 10.953L16.4056 13.1203C16.802 14.8294 15.8858 15.499 14.3793 14.6004L12.2737 13.3494C11.8949 13.1203 11.2606 13.1203 10.8817 13.3494L8.77615 14.6004C7.26965 15.4902 6.35342 14.8294 6.74987 13.1203L7.25204 10.953C7.34895 10.5478 7.18156 9.97514 6.89083 9.6756L5.13766 7.92242C4.10689 6.89165 4.44167 5.85207 5.87769 5.60539L8.12422 5.23538C8.50305 5.17371 8.95236 4.83893 9.11975 4.49534L10.362 2.01094C11.0227 0.663019 12.1151 0.663019 12.7935 2.01094Z" stroke="#FFFFFF" stroke-width="1.5" stroke-linecap="round" stroke-linejoin="round"/>
<path d="M6.28597 1.82812H1" stroke="#FFFFFF" stroke-width="1.5" stroke-linecap="round" stroke-linejoin="round"/>
<path d="M3.64299 14.1562H1" stroke="#FFFFFF" stroke-width="1.5" stroke-linecap="round" stroke-linejoin="round"/>
<path d="M1.881 7.99219H1" stroke="#FFFFFF" stroke-width="1.5" stroke-linecap="round" stroke-linejoin="round"/>
</svg>
