<svg width="18" height="18" viewBox="0 0 18 18" fill="none" xmlns="http://www.w3.org/2000/svg">
<path d="M7 10.3999C7 11.1759 7.60001 11.7999 8.33601 11.7999H9.83999C10.48 11.7999 11 11.2559 11 10.5759C11 9.84789 10.68 9.58389 10.208 9.41589L7.8 8.57589C7.328 8.40789 7.00801 8.15189 7.00801 7.41589C7.00801 6.74389 7.52799 6.19189 8.16799 6.19189H9.672C10.408 6.19189 11.008 6.81589 11.008 7.59189" stroke="white" stroke-width="1.5" stroke-linecap="round" stroke-linejoin="round"/>
<path d="M9 5.3999V12.5999" stroke="white" stroke-width="1.5" stroke-linecap="round" stroke-linejoin="round"/>
<path d="M17 9C17 13.416 13.416 17 9 17C4.584 17 1 13.416 1 9C1 4.584 4.584 1 9 1" stroke="white" stroke-width="1.5" stroke-linecap="round" stroke-linejoin="round"/>
<path d="M16.9998 4.2V1H13.7998" stroke="white" stroke-width="1.5" stroke-linecap="round" stroke-linejoin="round"/>
<path d="M13 5L17 1" stroke="white" stroke-width="1.5" stroke-linecap="round" stroke-linejoin="round"/>
</svg>
