<svg width="16" height="18" viewBox="0 0 16 18" fill="none" xmlns="http://www.w3.org/2000/svg">
<path d="M8.0625 4.52344V7.16761" stroke="#FFFFFF" stroke-width="1.5" stroke-miterlimit="10" stroke-linecap="round"/>
<path d="M8.08078 1C5.1587 1 2.79244 3.36625 2.79244 6.28834V7.95583C2.79244 8.49578 2.57011 9.30571 2.2922 9.76625L1.28376 11.4496C0.664404 12.4898 1.09319 13.6491 2.23661 14.0303C6.03215 15.2928 10.1374 15.2928 13.9329 14.0303C15.0048 13.673 15.4654 12.4184 14.8857 11.4496L13.8773 9.76625C13.5994 9.30571 13.3771 8.48784 13.3771 7.95583V6.28834C13.3691 3.38213 10.987 1 8.08078 1Z" stroke="#FFFFFF" stroke-width="1.5" stroke-miterlimit="10" stroke-linecap="round"/>
<path d="M10.7102 14.3594C10.7102 15.8125 9.51915 17.0035 8.06604 17.0035C7.34346 17.0035 6.67647 16.7018 6.20004 16.2254C5.72361 15.749 5.42188 15.082 5.42188 14.3594" stroke="#FFFFFF" stroke-width="1.5" stroke-miterlimit="10"/>
</svg>
