<svg width="17" height="18" viewBox="0 0 17 18" fill="none" xmlns="http://www.w3.org/2000/svg">
<path d="M15.2632 8.29364C15.2632 12.2076 12.4217 15.8734 8.53979 16.946C8.27566 17.018 7.9875 17.018 7.72336 16.946C3.84142 15.8734 1 12.2076 1 8.29364V4.77987C1 4.12354 1.49626 3.37917 2.11257 3.13104L6.57078 1.30615C7.57129 0.897949 8.69985 0.897949 9.70036 1.30615L14.1586 3.13104C14.7669 3.37917 15.2712 4.12354 15.2712 4.77987L15.2632 8.29364Z" stroke="#FFFFFF" stroke-width="1.5" stroke-linecap="round" stroke-linejoin="round"/>
<path d="M8.13205 9.39692C9.01615 9.39692 9.73285 8.68021 9.73285 7.79611C9.73285 6.91202 9.01615 6.19531 8.13205 6.19531C7.24795 6.19531 6.53125 6.91202 6.53125 7.79611C6.53125 8.68021 7.24795 9.39692 8.13205 9.39692Z" stroke="#FFFFFF" stroke-width="1.5" stroke-miterlimit="10" stroke-linecap="round" stroke-linejoin="round"/>
<path d="M8.13281 9.39844V11.7996" stroke="#FFFFFF" stroke-width="1.5" stroke-miterlimit="10" stroke-linecap="round" stroke-linejoin="round"/>
</svg>
