<svg width="18" height="15" viewBox="0 0 18 15" fill="none" xmlns="http://www.w3.org/2000/svg">
<path d="M12.4706 14H4.82353C2.52941 14 1 12.8529 1 10.1765V4.82353C1 2.14706 2.52941 1 4.82353 1H12.4706C14.7647 1 16.2941 2.14706 16.2941 4.82353V10.1765C16.2941 12.8529 14.7647 14 12.4706 14Z" stroke="white" stroke-width="1.5" stroke-miterlimit="10" stroke-linecap="round" stroke-linejoin="round"/>
<path d="M8.64666 9.79417C9.91366 9.79417 10.9408 8.76706 10.9408 7.50005C10.9408 6.23304 9.91366 5.20593 8.64666 5.20593C7.37965 5.20593 6.35254 6.23304 6.35254 7.50005C6.35254 8.76706 7.37965 9.79417 8.64666 9.79417Z" stroke="white" stroke-width="1.5" stroke-miterlimit="10" stroke-linecap="round" stroke-linejoin="round"/>
<path d="M3.67676 5.58826V9.41179" stroke="white" stroke-width="1.5" stroke-miterlimit="10" stroke-linecap="round" stroke-linejoin="round"/>
<path d="M13.6172 5.58826V9.41179" stroke="white" stroke-width="1.5" stroke-miterlimit="10" stroke-linecap="round" stroke-linejoin="round"/>
</svg>
