<svg width="18" height="18" viewBox="0 0 18 18" fill="none" xmlns="http://www.w3.org/2000/svg">
<path d="M7 10.3955C7 11.1715 7.60001 11.7955 8.33601 11.7955H9.83999C10.48 11.7955 11 11.2515 11 10.5715C11 9.8435 10.68 9.5795 10.208 9.4115L7.8 8.5715C7.328 8.4035 7.00801 8.1475 7.00801 7.4115C7.00801 6.7395 7.52799 6.1875 8.16799 6.1875H9.672C10.408 6.1875 11.008 6.8115 11.008 7.5875" stroke="#CEA438" stroke-width="1.5" stroke-linecap="round" stroke-linejoin="round"/>
<path d="M9 5.39844V12.5984" stroke="#CEA438" stroke-width="1.5" stroke-linecap="round" stroke-linejoin="round"/>
<path d="M17 9C17 13.416 13.416 17 9 17C4.584 17 1 13.416 1 9C1 4.584 4.584 1 9 1" stroke="#CEA438" stroke-width="1.5" stroke-linecap="round" stroke-linejoin="round"/>
<path d="M13 1.79688V4.99688H16.2" stroke="#CEA438" stroke-width="1.5" stroke-linecap="round" stroke-linejoin="round"/>
<path d="M17 1L13 5" stroke="#CEA438" stroke-width="1.5" stroke-linecap="round" stroke-linejoin="round"/>
</svg>
