<svg width="17" height="18" viewBox="0 0 17 18" fill="none" xmlns="http://www.w3.org/2000/svg">
<path d="M13.0075 14.4884H12.3991C11.7587 14.4884 11.1504 14.7366 10.7021 15.1849L9.33322 16.5377C8.70883 17.1541 7.69218 17.1541 7.06779 16.5377L5.69894 15.1849C5.25066 14.7366 4.63428 14.4884 4.00188 14.4884H3.4015C2.07267 14.4884 1 13.4238 1 12.111V3.37747C1 2.06464 2.07267 1 3.4015 1H13.0075C14.3364 1 15.409 2.06464 15.409 3.37747V12.111C15.409 13.4158 14.3364 14.4884 13.0075 14.4884Z" stroke="#FFFFFF" stroke-width="1.5" stroke-miterlimit="10" stroke-linecap="round" stroke-linejoin="round"/>
<path d="M8.42796 11.3642C8.30788 11.4042 8.10776 11.4042 7.97968 11.3642C6.93903 11.004 4.60156 9.52303 4.60156 7.00145C4.60156 5.88876 5.49812 4.99219 6.60282 4.99219C7.25923 4.99219 7.83559 5.30438 8.20382 5.79269C8.57205 5.30438 9.14841 4.99219 9.80482 4.99219C10.9095 4.99219 11.8061 5.88876 11.8061 7.00145C11.7981 9.52303 9.46861 11.004 8.42796 11.3642Z" stroke="#FFFFFF" stroke-width="1.5" stroke-linecap="round" stroke-linejoin="round"/>
</svg>
