<svg width="34" height="34" viewBox="0 0 34 34" fill="none" xmlns="http://www.w3.org/2000/svg">
<circle cx="17" cy="17" r="17" fill="url(#paint0_linear_889_229)"/>
<path d="M24.4406 23.7737L18.6922 9.87577C18.3679 9.15722 17.886 8.8067 17.2507 8.8067H16.7424C16.1071 8.8067 15.6252 9.15722 15.3009 9.87577L12.7991 15.9309H10.9063C10.3411 15.9353 9.88108 16.391 9.8767 16.9606V16.9737C9.88108 17.5389 10.3411 17.999 10.9063 18.0034H11.9228L9.53495 23.7737C9.49113 23.9008 9.46484 24.0322 9.46484 24.168C9.46484 24.4923 9.56562 24.7464 9.74526 24.9436C9.9249 25.1407 10.1834 25.2371 10.5076 25.2371C10.7223 25.2327 10.9282 25.167 11.0991 25.0399C11.2831 24.9129 11.4102 24.7289 11.511 24.5186L14.1398 17.999H15.9625C16.5277 17.9946 16.9878 17.5389 16.9922 16.9693V16.943C16.9878 16.3778 16.5277 15.9178 15.9625 15.9134H14.9898L16.9965 10.9142L22.4646 24.5142C22.5654 24.7245 22.6924 24.9085 22.8764 25.0356C23.0473 25.1626 23.2576 25.2284 23.4679 25.2327C23.7922 25.2327 24.0463 25.1363 24.2303 24.9392C24.4143 24.742 24.5107 24.4879 24.5107 24.1637C24.5151 24.0322 24.4932 23.8964 24.4406 23.7737Z" fill="white"/>
<defs>
<linearGradient id="paint0_linear_889_229" x1="19.033" y1="-6.31303" x2="-6.26305" y2="14.971" gradientUnits="userSpaceOnUse">
<stop stop-color="#B6509E"/>
<stop offset="1" stop-color="#2EBAC6"/>
</linearGradient>
</defs>
</svg>
