<svg width="34" height="34" viewBox="0 0 34 34" fill="none" xmlns="http://www.w3.org/2000/svg">
<path d="M33.4876 21.1124C31.2171 30.2196 21.9929 35.7621 12.8846 33.491C3.78014 31.2206 -1.76234 21.9958 0.509125 12.8894C2.7786 3.78112 12.0028 -1.76177 21.1082 0.508698C30.2159 2.77917 35.758 12.0049 33.4873 21.1125L33.4875 21.1124H33.4876Z" fill="#F7931A"/>
<path fill-rule="evenodd" clip-rule="evenodd" d="M24.494 14.5779C24.8324 12.3156 23.11 11.0995 20.7548 10.2882L21.5188 7.22372L19.6533 6.75889L18.9096 9.74273C18.4191 9.62042 17.9155 9.50516 17.4149 9.39091L18.1641 6.38738L16.2998 5.92255L15.5354 8.98607C15.1295 8.89367 14.7309 8.80235 14.3442 8.70613L14.3464 8.69649L11.7738 8.05409L11.2776 10.0465C11.2776 10.0465 12.6616 10.3638 12.6324 10.3833C13.3879 10.5718 13.5245 11.0719 13.5018 11.4683L12.6315 14.9595C12.6835 14.9727 12.7509 14.9918 12.8254 15.0217L12.7712 15.0082C12.7252 14.9967 12.6773 14.9847 12.6282 14.9729L11.4083 19.8636C11.316 20.0931 11.0817 20.4376 10.5535 20.3068C10.5722 20.3339 9.19766 19.9684 9.19766 19.9684L8.27148 22.1038L10.6991 22.709C10.9648 22.7756 11.2273 22.844 11.4873 22.9118L11.4877 22.9119C11.6694 22.9593 11.8498 23.0063 12.0291 23.0521L11.2572 26.1518L13.1205 26.6166L13.8849 23.5499C14.394 23.6881 14.888 23.8155 15.3716 23.9357L14.6097 26.988L16.4752 27.4528L17.2471 24.359C20.4281 24.961 22.82 24.7183 23.8268 21.841C24.638 19.5245 23.7864 18.1884 22.1129 17.317C23.3318 17.0359 24.2499 16.2342 24.4947 14.5782L24.4941 14.5777L24.494 14.5779ZM20.2318 20.5546C19.7029 22.6799 16.3761 21.8012 14.8541 21.3992L14.854 21.3992C14.7171 21.363 14.5948 21.3307 14.4905 21.3048L15.5149 17.1983C15.642 17.2301 15.7974 17.2649 15.9735 17.3044L15.9736 17.3045C17.548 17.6578 20.7737 18.3817 20.2319 20.5546H20.2318ZM16.2894 15.3985C17.5583 15.7372 20.3266 16.476 20.8087 14.5443H20.8089C21.3012 12.5687 18.6109 11.9731 17.2969 11.6822C17.1491 11.6495 17.0187 11.6206 16.9122 11.5941L15.9835 15.3184C16.0712 15.3403 16.1741 15.3678 16.2894 15.3985Z" fill="white"/>
</svg>
