<svg width="34" height="34" viewBox="0 0 34 34" fill="none" xmlns="http://www.w3.org/2000/svg">
<path d="M17 0C26.3897 0 34 7.61183 34 17C34 26.3897 26.3897 34 17 34C7.61183 34 0 26.3889 0 17C0 7.61183 7.61183 0 17 0Z" fill="#F5AC37"/>
<path fill-rule="evenodd" clip-rule="evenodd" d="M8.90415 26.3713V26.4348L8.90109 26.4371V26.4478H16.275C17.1096 26.4593 17.9412 26.3928 18.7613 26.2459C19.625 26.0768 20.4665 25.8106 21.269 25.4495C21.6169 25.2883 21.9508 25.0936 22.2876 24.897C22.3729 24.8473 22.4583 24.7974 22.5442 24.748C22.9405 24.4657 23.32 24.1597 23.681 23.8346C24.6694 22.941 25.4344 21.8264 25.9126 20.5833C25.9447 20.4441 26.0809 20.3545 26.2209 20.3813H28.229C28.3889 20.3813 28.4417 20.3278 28.4417 20.1472V18.8613C28.4524 18.7381 28.4524 18.6134 28.4417 18.4902C28.4417 18.458 28.45 18.4259 28.4582 18.3939C28.4747 18.33 28.4911 18.2663 28.4417 18.2026H26.764C26.5613 18.2026 26.5613 18.1812 26.5613 18.0006C26.6194 17.3534 26.6194 16.7039 26.5613 16.0567C26.5506 15.8655 26.5934 15.8655 26.7418 15.8655H28.2084C28.379 15.8655 28.4424 15.8226 28.4424 15.6528V13.9101C28.4372 13.7947 28.4345 13.7362 28.4039 13.7065C28.3724 13.676 28.3114 13.676 28.1877 13.676H26.2859C26.1375 13.7013 25.9952 13.6011 25.9684 13.4526C25.7504 12.8827 25.4727 12.3373 25.1384 11.827C24.8018 11.3236 24.4223 10.8509 24.0016 10.414C23.4424 9.85558 22.8143 9.37057 22.1319 8.96894C21.103 8.37147 19.9776 7.95301 18.8064 7.73651C18.238 7.6317 17.6635 7.56821 17.0851 7.54526H9.11683C8.90415 7.54526 8.90415 7.5881 8.90415 7.75793V13.4848C8.90415 13.6867 8.86131 13.6867 8.70219 13.6867H6.41788C6.24805 13.6867 6.24805 13.7181 6.24805 13.8352V15.7048C6.24805 15.8747 6.30083 15.8747 6.42859 15.8747H8.73432C8.90415 15.8747 8.90415 15.906 8.90415 16.0338V18.0312C8.90415 18.2118 8.8506 18.2118 8.7129 18.2118H6.24805V20.2306C6.24805 20.4004 6.30083 20.4004 6.42859 20.4004H8.73432C8.90415 20.4004 8.90415 20.4211 8.90415 20.5596V23.0566V23.8958V26.3713ZM23.5783 13.5047C23.5967 13.5521 23.5967 13.6049 23.5783 13.6531H23.6296C23.6081 13.7166 23.5018 13.738 23.5018 13.738H11.241C11.0391 13.738 11.0391 13.6951 11.0391 13.536V9.76453C11.0391 9.62606 11.0605 9.56257 11.2196 9.56257H16.925C17.5324 9.55721 18.1383 9.62071 18.7312 9.75382C19.9063 10.0323 20.9995 10.5861 21.919 11.3688C22.1026 11.5057 22.2663 11.6671 22.4078 11.8469C22.7077 12.1445 22.9709 12.4757 23.1943 12.8353C23.3427 13.0456 23.4704 13.2698 23.5783 13.5047ZM24.0863 18.2003H17.6265H11.2938C11.1646 18.2003 11.1009 18.2003 11.0696 18.1685C11.0391 18.1375 11.0391 18.0765 11.0391 17.9563V16.0652C11.0391 15.916 11.0819 15.8632 11.241 15.8632H24.097C24.2354 15.8632 24.2989 15.916 24.2989 16.0437C24.3517 16.7016 24.3517 17.3626 24.2989 18.0197C24.289 18.2003 24.224 18.2003 24.0863 18.2003ZM23.5775 20.4104C23.397 20.3905 23.2149 20.3905 23.0344 20.4104H11.2517C11.0926 20.4104 11.0391 20.4104 11.0391 20.623V24.3104C11.0391 24.4802 11.0391 24.523 11.2517 24.523H16.6917C16.9518 24.5429 17.2119 24.5246 17.4667 24.4703C18.2561 24.4136 19.0326 24.2423 19.7732 23.96C20.0424 23.8667 20.3025 23.745 20.5481 23.5989H20.6223C21.8976 22.9357 22.9334 21.8937 23.5867 20.6146C23.5867 20.6146 23.6609 20.454 23.5775 20.4119V20.4104Z" fill="#FEFEFD"/>
</svg>
