<svg width="30" height="30" viewBox="0 0 30 30" fill="none" xmlns="http://www.w3.org/2000/svg">
<circle cx="15" cy="15" r="15" fill="#13B5EC"/>
<path fill-rule="evenodd" clip-rule="evenodd" d="M16.248 12.0013L19.623 10.0226V13.9799L16.248 12.0013ZM19.623 20.4812L15.123 23.1194L10.623 20.4812V15.8643L15.123 18.5025L19.623 15.8643V20.4812ZM10.623 10.0226L13.998 12.0013L10.623 13.9799V10.0226ZM15.6855 12.9435L19.0605 14.9222L15.6855 16.9008V12.9435ZM14.5605 16.9008L11.1855 14.9222L14.5605 12.9435V16.9008ZM19.0605 9.08044L15.123 11.3417L11.1855 9.08044L15.123 6.72491L19.0605 9.08044ZM9.49805 8.70352V21.0465L15.123 24.25L20.748 21.0465V8.70352L15.123 5.5L9.49805 8.70352Z" fill="white"/>
</svg>
