<svg width="30" height="30" viewBox="0 0 30 30" fill="none" xmlns="http://www.w3.org/2000/svg">
<path d="M29.5479 18.6286C27.5445 26.6644 19.4055 31.5548 11.3688 29.5509C3.33542 27.5476 -1.55501 19.4081 0.449228 11.373C2.45171 3.33629 10.5907 -1.55451 18.6249 0.448851C26.6611 2.45221 31.5512 10.5926 29.5476 18.6287L29.5478 18.6286H29.5479Z" fill="#8EB5FF"/>
<path d="M20.035 8L18.5752 9.09584V12.3275L19.7936 11.3882V22H23.0005V8H20.035Z" fill="white"/>
<path d="M10.1609 8H7V11.4553V14.7763V22H10.1609V14.7763H15.4253V11.4553H10.1609V8Z" fill="white"/>
<path d="M15.4248 11.4553L18.5742 9.09584V8H15.4248V11.4553Z" fill="white"/>
<path d="M15.4248 22.0002H18.5742V12.3389L15.4248 14.7877V22.0002Z" fill="white"/>
</svg>
