<svg width="34" height="34" viewBox="0 0 34 34" fill="none" xmlns="http://www.w3.org/2000/svg">
<path d="M33.4876 21.1124C31.2171 30.2196 21.9929 35.7621 12.8846 33.491C3.78014 31.2206 -1.76234 21.9958 0.509125 12.8894C2.7786 3.78112 12.0028 -1.76177 21.1082 0.508698C30.2159 2.77917 35.758 12.0049 33.4873 21.1125L33.4875 21.1124H33.4876Z" fill="#50AF95"/>
<path fill-rule="evenodd" clip-rule="evenodd" d="M19.1517 18.9273C19.0315 18.9363 18.4104 18.9734 17.0251 18.9734C15.9232 18.9734 15.1409 18.9403 14.8664 18.9273C10.6081 18.74 7.42969 17.9987 7.42969 17.1112C7.42969 16.2237 10.6081 15.4834 14.8664 15.2931V18.1891C15.1449 18.2091 15.9422 18.2562 17.0441 18.2562C18.3664 18.2562 19.0285 18.2011 19.1477 18.1901V15.2951C23.397 15.4844 26.5684 16.2257 26.5684 17.1112C26.5684 17.9967 23.398 18.738 19.1477 18.9263L19.1517 18.9273ZM19.1516 14.9956V12.4042H25.0818V8.45242H8.93617V12.4042H14.8653V14.9946C10.0461 15.216 6.42188 16.1706 6.42188 17.3146C6.42188 18.4585 10.0461 19.4121 14.8653 19.6345V27.9387H19.1506V19.6315C23.9588 19.4101 27.577 18.4565 27.577 17.3136C27.577 16.1706 23.9618 15.217 19.1506 14.9946L19.1516 14.9956Z" fill="white"/>
</svg>
