<?xml version="1.0" encoding="utf-8"?>
<!-- Generator: Adobe Illustrator 25.0.0, SVG Export Plug-In . SVG Version: 6.00 Build 0)  -->
<svg version="1.1" id="Layer_1" xmlns="http://www.w3.org/2000/svg" xmlns:xlink="http://www.w3.org/1999/xlink" x="0px" y="0px"
	 viewBox="0 0 200 200" style="enable-background:new 0 0 200 200;" xml:space="preserve">
<style type="text/css">
	.st0{fill:#10101D;}
	.st1{fill:#FDFDFD;}
	.st2{fill:#96B5F9;}
</style>
<g>
	<circle class="st0" cx="100" cy="100" r="98.32"/>
	<g>
		<g>
			<polygon class="st1" points="101.58,80.68 73.79,80.68 73.7,56.98 55.77,56.98 55.77,143.02 73.7,143.02 73.7,101.68 
				101.5,101.68 101.5,143.02 119.43,143.02 119.43,85.07 101.58,101.68 			"/>
			<polygon class="st1" points="128.14,56.98 119.43,64.75 119.43,56.98 101.5,56.98 101.58,80.68 119.43,64.75 119.43,85.07 
				127.68,77.4 127.68,143.02 144.23,143.02 144.23,56.98 			"/>
		</g>
	</g>
	<g>
		<path class="st2" d="M100,200C44.86,200,0,155.14,0,100S44.86,0,100,0s100,44.86,100,100S155.14,200,100,200z M100,6.82
			C48.62,6.82,6.82,48.62,6.82,100s41.8,93.18,93.18,93.18s93.18-41.8,93.18-93.18S151.38,6.82,100,6.82z"/>
	</g>
</g>
</svg>
