<?xml version="1.0" encoding="utf-8"?>
<!-- Generator: Adobe Illustrator 25.0.0, SVG Export Plug-In . SVG Version: 6.00 Build 0)  -->
<svg version="1.1" id="Layer_1" xmlns="http://www.w3.org/2000/svg" xmlns:xlink="http://www.w3.org/1999/xlink" x="0px" y="0px"
	 viewBox="0 0 80 80" style="enable-background:new 0 0 80 80;" xml:space="preserve">
<style type="text/css">
	.st0{fill:#FDFDFD;}
</style>
<g>
	<path class="st0" d="M72.23,77.66H7.77v-4.48h47.86c0.65,0,1.17-0.52,1.17-1.17c0-0.65-0.52-1.17-1.17-1.17H11.14v-3.43h57.66
		c0.03,0.18,0.05,0.46,0.05,0.87v2.55h-7.76c-0.65,0-1.17,0.52-1.17,1.17c0,0.65,0.52,1.17,1.17,1.17h11.14V77.66z M20.84,41.17
		h3.27v23.89h-3.27V41.17z M18.49,41.17v23.72h-3.73V41.17H18.49z M11.14,36.26h57.71v2.57H11.14V36.26z M65.24,64.89h-3.73V41.17
		h3.73V64.89z M49.82,64.89V41.17h3.73v23.72H49.82z M44.21,41.17h3.27v23.89h-3.27V41.17z M38.13,64.89V41.17h3.73v23.72H38.13z
		 M31.35,59.3c-0.65,0-1.17,0.53-1.17,1.17v4.42h-3.73V41.17h3.73V55c0,0.65,0.52,1.17,1.17,1.17c0.65,0,1.17-0.53,1.17-1.17V41.17
		h3.27v23.89h-3.27v-4.59C32.52,59.82,32,59.3,31.35,59.3z M55.9,65.06V41.17h3.27v23.89H55.9z M41.17,3.74h12.05v5.53H41.17V3.74z
		 M55.02,11.43c0.33-0.21,0.55-0.57,0.55-0.99v-1.8h4.03v5.53h-8.96L55.02,11.43z M47.73,13.23v-1.61h2.58L47.73,13.23z
		 M72.63,70.84H71.2v-2.55c0-0.98-0.11-1.67-0.34-2.16c-0.32-0.67-0.91-1.06-1.61-1.06h-1.66V41.17h1.66c1.08,0,1.95-0.88,1.95-1.95
		v-2.96h1.41c0.68,0,1.25-0.44,1.43-1.09c0.18-0.65-0.09-1.32-0.68-1.67L58.95,25c-0.56-0.33-1.28-0.14-1.6,0.41
		c-0.33,0.56-0.14,1.28,0.41,1.6l11.7,6.9H10.54L40,16.55l13.04,7.69c0.56,0.33,1.28,0.14,1.6-0.41c0.33-0.56,0.14-1.28-0.41-1.61
		l-13.06-7.7v-2.91h4.21v3.73c0,0.65,0.52,1.17,1.17,1.17h13.75c0.9,0,1.64-0.74,1.64-1.64V7.94c0-0.9-0.74-1.64-1.64-1.64h-4.74
		V3.04c0-0.9-0.74-1.64-1.64-1.64H41.17V1.17C41.17,0.52,40.65,0,40,0s-1.17,0.52-1.17,1.17v13.35L6.64,33.5
		c-0.58,0.34-0.86,1.01-0.68,1.67c0.18,0.65,0.75,1.09,1.43,1.09H8.8v2.96c0,1.08,0.88,1.95,1.95,1.95h1.66v23.89h-1.66
		c-1.08,0-1.95,0.88-1.95,1.95v3.82H7.37c-1.08,0-1.95,0.88-1.95,1.95v5.26C5.42,79.12,6.3,80,7.37,80h65.25
		c1.08,0,1.95-0.88,1.95-1.95v-5.26C74.58,71.71,73.7,70.84,72.63,70.84L72.63,70.84z"/>
	<path class="st0" d="M42.85,26.45c0,1.57-1.28,2.85-2.85,2.85s-2.85-1.28-2.85-2.85c0-1.57,1.28-2.85,2.85-2.85
		S42.85,24.87,42.85,26.45z M34.81,26.45c0,2.86,2.33,5.19,5.19,5.19c2.86,0,5.19-2.33,5.19-5.19s-2.33-5.19-5.19-5.19
		C37.14,21.25,34.81,23.58,34.81,26.45z"/>
</g>
</svg>
