<?xml version="1.0" encoding="utf-8"?>
<!-- Generator: Adobe Illustrator 25.0.0, SVG Export Plug-In . SVG Version: 6.00 Build 0)  -->
<svg version="1.1" id="Layer_1" xmlns="http://www.w3.org/2000/svg" xmlns:xlink="http://www.w3.org/1999/xlink" x="0px" y="0px"
	 viewBox="0 0 80 80" style="enable-background:new 0 0 80 80;" xml:space="preserve">
<style type="text/css">
	.st0{fill:#FDFDFD;}
</style>
<g>
	<path class="st0" d="M58.09,77.66h-5.89V60.04h5.89V77.66z M45.54,77.66h-5.89V52.02h5.89V77.66z M20.44,77.66h-5.89V59.84h5.89
		V77.66z M75.93,77.66h-2.94V54.69c0-0.65-0.52-1.17-1.17-1.17s-1.17,0.52-1.17,1.17v22.97h-5.89V45.28h5.89v3.94
		c0,0.65,0.52,1.17,1.17,1.17s1.17-0.52,1.17-1.17v-4.49c0-0.99-0.81-1.8-1.8-1.8h-6.98c-0.99,0-1.8,0.81-1.8,1.8v32.92h-1.98V59.5
		c0-0.99-0.81-1.8-1.8-1.8h-6.98c-0.99,0-1.8,0.81-1.8,1.8v18.16h-1.98V51.47c0-0.99-0.81-1.8-1.8-1.8h-6.98
		c-0.99,0-1.8,0.81-1.8,1.8v26.19h-1.98v-6.25c0-0.65-0.52-1.17-1.17-1.17s-1.17,0.52-1.17,1.17v6.25h-5.89V45.02h5.89v20.91
		c0,0.65,0.52,1.17,1.17,1.17s1.17-0.52,1.17-1.17V44.48c0-0.99-0.81-1.8-1.8-1.8h-6.98c-0.99,0-1.8,0.81-1.8,1.8v33.18h-1.98V59.29
		c0-0.99-0.81-1.8-1.8-1.8h-6.98c-0.99,0-1.8,0.81-1.8,1.8v18.36H9.27c-0.65,0-1.17,0.52-1.17,1.17C8.1,79.48,8.62,80,9.27,80h66.66
		c0.65,0,1.17-0.52,1.17-1.17C77.1,78.18,76.58,77.66,75.93,77.66L75.93,77.66z"/>
	<path class="st0" d="M3.08,21v-6.9h19.28V21H3.08z M27.16,30.99c0.83,0.54,1.82,0.86,2.89,0.86c1.28,0,2.45-0.46,3.37-1.21
		l2.62,2.02c-1.54,1.52-3.66,2.45-5.98,2.45c-1.98,0-3.81-0.68-5.26-1.82L27.16,30.99z M30.05,23.62c1.62,0,2.94,1.32,2.94,2.94
		s-1.32,2.94-2.94,2.94s-2.94-1.32-2.94-2.94S28.43,23.62,30.05,23.62z M55.15,42.96c1.62,0,2.94,1.32,2.94,2.94
		c0,1.62-1.32,2.94-2.94,2.94c-1.62,0-2.94-1.32-2.94-2.94C52.21,44.29,53.53,42.96,55.15,42.96z M67.7,30
		c1.62,0,2.94,1.32,2.94,2.94c0,1.62-1.32,2.94-2.94,2.94s-2.94-1.32-2.94-2.94C64.76,31.32,66.08,30,67.7,30z M17.5,41.65
		c-1.62,0-2.94-1.32-2.94-2.94c0-1.62,1.32-2.94,2.94-2.94s2.94,1.32,2.94,2.94C20.44,40.33,19.12,41.65,17.5,41.65z M19.16,26.57
		c0,2.52,0.86,4.83,2.3,6.68l-1.07,1.04c-0.83-0.54-1.82-0.86-2.89-0.86c-2.92,0-5.29,2.37-5.29,5.29s2.37,5.29,5.29,5.29
		s5.29-2.37,5.29-5.29c0-1-0.28-1.94-0.77-2.74l1.07-1.04c1.89,1.57,4.32,2.52,6.96,2.52c3.08,0,5.87-1.29,7.85-3.36l12.45,9.59
		c-0.31,0.67-0.49,1.43-0.49,2.22c0,2.92,2.37,5.29,5.29,5.29c2.92,0,5.29-2.37,5.29-5.29c0-1.06-0.32-2.06-0.86-2.89l5.38-5.56
		c0.8,0.49,1.74,0.77,2.74,0.77c2.92,0,5.29-2.37,5.29-5.29c0-2.92-2.37-5.29-5.29-5.29c-2.92,0-5.29,2.37-5.29,5.29
		c0,1.06,0.32,2.06,0.86,2.89l-5.38,5.56c-0.8-0.49-1.74-0.77-2.74-0.77c-1.28,0-2.45,0.46-3.37,1.21l-12.45-9.59
		c1.01-1.65,1.6-3.6,1.6-5.68c0-1.43-0.27-2.82-0.82-4.14c-0.25-0.6-0.93-0.88-1.53-0.64c-0.6,0.25-0.88,0.93-0.64,1.53
		c0.42,1.03,0.64,2.12,0.64,3.25c0,1.54-0.41,2.99-1.13,4.23l-2.62-2.02c0.31-0.68,0.49-1.43,0.49-2.22c0-2.92-2.37-5.29-5.29-5.29
		s-5.29,2.37-5.29,5.29c0,1,0.28,1.94,0.77,2.74l-2.37,2.3c-1.04-1.41-1.65-3.16-1.65-5.04c0-1.14,0.23-2.23,0.63-3.22h0.64
		c1.06,0,1.92-0.86,1.92-1.92v-1.51c1.47-1.18,3.32-1.89,5.35-1.89c1.75,0,3.44,0.53,4.87,1.53c0.53,0.37,1.26,0.24,1.63-0.29
		c0.37-0.53,0.24-1.26-0.29-1.63c-1.83-1.27-3.98-1.95-6.21-1.95c-1.94,0-3.77,0.51-5.35,1.41v-3.41c0-1.06-0.86-1.92-1.92-1.92
		H2.65c-1.06,0-1.92,0.86-1.92,1.92v7.75c0,1.06,0.86,1.92,1.92,1.92h17C19.34,24.36,19.16,25.45,19.16,26.57L19.16,26.57z"/>
	<path class="st0" d="M8.8,16.38H5.98c-0.65,0-1.17,0.52-1.17,1.17c0,0.65,0.52,1.17,1.17,1.17H8.8c0.65,0,1.17-0.52,1.17-1.17
		C9.97,16.91,9.45,16.38,8.8,16.38z"/>
	<path class="st0" d="M19.45,16.38h-6.99c-0.65,0-1.17,0.52-1.17,1.17c0,0.65,0.52,1.17,1.17,1.17h6.99c0.65,0,1.17-0.52,1.17-1.17
		C20.63,16.91,20.1,16.38,19.45,16.38z"/>
	<path class="st0" d="M58.53,11.06c0.24-4.67,4.08-8.5,8.75-8.71c2.54-0.12,4.96,0.78,6.79,2.54c1.84,1.75,2.85,4.12,2.85,6.66
		c0,4.3-3.05,8.09-7.25,8.99c-0.67,0.14-1.23,0.62-1.49,1.24l-0.46,0.78l-0.46-0.78c-0.26-0.63-0.83-1.1-1.5-1.24
		C61.34,19.58,58.3,15.6,58.53,11.06z M65.15,22.8c0.01,0.03,0.03,0.06,0.04,0.08l1.52,2.59c0.21,0.36,0.6,0.58,1.01,0.58
		c0.42,0,0.8-0.22,1.01-0.58l1.52-2.59c0.02-0.03,0.03-0.06,0.04-0.08c5.21-1.19,8.97-5.9,8.97-11.26c0-3.19-1.27-6.15-3.57-8.35
		c-2.3-2.2-5.33-3.33-8.52-3.18c-2.85,0.13-5.55,1.32-7.59,3.36c-2.04,2.03-3.25,4.72-3.39,7.58C55.9,16.59,59.66,21.55,65.15,22.8
		L65.15,22.8z"/>
</g>
</svg>
