<svg width="23" height="26" viewBox="0 0 23 26" fill="none" xmlns="http://www.w3.org/2000/svg">
<path d="M4.87552 22.2373C5.85939 21.1815 7.35921 21.2655 8.2231 22.4173L9.43495 24.0371C10.4068 25.321 11.9786 25.321 12.9505 24.0371L14.1624 22.4173C15.0262 21.2655 16.5261 21.1815 17.5099 22.2373C19.6457 24.5171 21.3855 23.7612 21.3855 20.5696V7.04724C21.3975 2.21185 20.2696 1 15.7342 1H6.66329C2.12786 1 1 2.21185 1 7.04724V20.5576C1 23.7612 2.75178 24.5051 4.87552 22.2373Z" stroke="white" stroke-width="1.5" stroke-linecap="round" stroke-linejoin="round"/>
<path d="M6.51521 11.7987H6.52599" stroke="white" stroke-width="2" stroke-linecap="round" stroke-linejoin="round"/>
<path d="M9.87695 11.7986H16.4761" stroke="white" stroke-width="1.5" stroke-linecap="round" stroke-linejoin="round"/>
<path d="M6.51521 6.99934H6.52599" stroke="white" stroke-width="2" stroke-linecap="round" stroke-linejoin="round"/>
<path d="M9.87695 6.99927H16.4761" stroke="white" stroke-width="1.5" stroke-linecap="round" stroke-linejoin="round"/>
</svg>
