<?xml version="1.0" encoding="utf-8"?>
<!-- Generator: Adobe Illustrator 25.0.0, SVG Export Plug-In . SVG Version: 6.00 Build 0)  -->
<svg version="1.1" id="Layer_1" xmlns="http://www.w3.org/2000/svg" xmlns:xlink="http://www.w3.org/1999/xlink" x="0px" y="0px"
	 viewBox="0 0 80 80" style="enable-background:new 0 0 80 80;" xml:space="preserve">
<style type="text/css">
	.st0{fill:#FDFDFD;}
</style>
<g>
	<path class="st0" d="M26.7,35.38l7.64-1.11c0.86-0.13,1.6-0.66,1.99-1.44l3.42-6.92c0.11-0.22,0.42-0.22,0.53,0l3.42,6.92
		c0.38,0.78,1.13,1.32,1.99,1.44l7.64,1.11c0.24,0.04,0.34,0.33,0.16,0.5l-5.53,5.39c-0.62,0.61-0.91,1.48-0.76,2.34l1.3,7.61
		c0.04,0.24-0.21,0.43-0.43,0.31l-6.83-3.59c-0.77-0.4-1.69-0.4-2.46,0l-6.83,3.59c-0.22,0.11-0.47-0.07-0.43-0.31l1.3-7.61
		c0.15-0.86-0.14-1.73-0.76-2.34l-5.53-5.39C26.36,35.71,26.45,35.42,26.7,35.38L26.7,35.38z M24.9,37.57l5.53,5.39
		c0.07,0.07,0.1,0.17,0.09,0.26l-1.31,7.61c-0.37,2.15,1.89,3.8,3.83,2.78l6.83-3.59c0.09-0.05,0.19-0.05,0.27,0l6.83,3.59
		c1.94,1.02,4.2-0.63,3.83-2.78l-1.3-7.61c-0.02-0.1,0.02-0.19,0.09-0.26l5.53-5.39c1.57-1.53,0.7-4.19-1.46-4.5L46,31.95
		c-0.1-0.01-0.18-0.07-0.22-0.16l-3.42-6.92c-0.97-1.96-3.77-1.96-4.73,0l-3.42,6.92c-0.04,0.09-0.13,0.15-0.22,0.16l-7.64,1.11
		C24.2,33.38,23.33,36.04,24.9,37.57z"/>
	<path class="st0" d="M29.43,21.46c6.52-3.75,14.61-3.75,21.14,0c0.56,0.32,1.28,0.13,1.6-0.43c0.32-0.56,0.13-1.28-0.43-1.6
		c-7.24-4.17-16.23-4.17-23.48,0c-0.56,0.32-0.75,1.04-0.43,1.6C28.15,21.59,28.87,21.78,29.43,21.46z"/>
	<path class="st0" d="M50.57,58.28c-6.52,3.75-14.61,3.75-21.14,0c-0.56-0.32-1.28-0.13-1.6,0.43c-0.32,0.56-0.13,1.28,0.43,1.6
		c7.24,4.17,16.23,4.17,23.48,0c0.56-0.32,0.75-1.04,0.43-1.6C51.85,58.15,51.13,57.96,50.57,58.28z"/>
	<path class="st0" d="M26.05,67.77c6.77,0.9,10.58,4.4,12.86,6.49c0,0,0,0,0.01,0.01c0.62,0.57,1.59,0.56,2.2,0l0.04-0.04
		c2.09-1.94,5.97-5.54,12.84-6.45c17.77-2.36,19.72-15.43,15.31-23c-4.25-7.29-5.54-14.64-3.84-21.86c1.19-5.03,3.58-8.87,5.39-11.2
		c0.56-0.72,0.49-1.75-0.15-2.4l-3.01-3.04c-0.71-0.72-1.92-0.74-2.64,0.05c-6.32,6.9-16.95,7.34-23.82,1.14
		c-0.7-0.63-1.75-0.63-2.44,0c-2.76,2.49-6.32,4.02-10.04,4.31c-0.65,0.05-1.13,0.61-1.08,1.26c0.05,0.65,0.62,1.13,1.26,1.08
		c4.07-0.32,7.99-1.94,11.08-4.6c7.68,6.6,19.25,6.17,26.4-1.2l2.31,2.34c-1.91,2.54-4.31,6.55-5.54,11.73
		c-1.84,7.82-0.47,15.76,4.09,23.58c3.59,6.17,2.47,17.36-13.59,19.49c-7.14,0.95-11.31,4.47-13.68,6.64
		c-2.53-2.3-6.62-5.71-13.65-6.64c-15.82-2.1-17.35-13.1-13.65-19.43c4.58-7.83,5.97-15.78,4.14-23.62
		c-1.22-5.2-3.63-9.21-5.54-11.76l2.31-2.34c2.59,2.67,5.86,4.52,9.49,5.37c0.63,0.15,1.26-0.25,1.41-0.88
		c0.15-0.63-0.25-1.26-0.88-1.41c-3.35-0.78-6.35-2.53-8.67-5.06c-0.71-0.78-1.92-0.78-2.64-0.05L9.32,9.31
		c-0.64,0.65-0.7,1.68-0.15,2.4c1.81,2.34,4.21,6.18,5.39,11.22c1.7,7.23,0.39,14.6-3.88,21.9C6.26,52.41,8.32,65.42,26.05,67.77
		L26.05,67.77z"/>
	<path class="st0" d="M69.82,28.29c0.23-6.82,3.63-11.83,5.64-14.21c1.87-2.21,1.74-5.43-0.3-7.49l-4.9-4.95
		c-2.37-2.39-6.29-2.13-8.34,0.52c-4.36,5.6-12.6,6.13-17.63,1.2c-2.4-2.35-6.15-2.35-8.55,0c-5.04,4.94-13.28,4.41-17.63-1.2
		c-2.06-2.65-5.98-2.9-8.35-0.51l-4.9,4.95c-2.04,2.06-2.17,5.28-0.3,7.49c3.24,3.83,9.89,14.25,1.74,28.18
		c-6.21,10.62-2.34,27.7,19.08,30.54c5.55,0.73,8.27,3.54,10.55,5.61c2.33,2.11,5.84,2.11,8.16,0c1.8-1.64,4.84-4.85,10.57-5.61
		c21.43-2.85,25.23-19.95,19.03-30.59c-1.69-2.9-2.84-5.84-3.42-8.72c-0.13-0.63-0.75-1.05-1.38-0.92
		c-0.63,0.13-1.05,0.75-0.92,1.38c0.63,3.14,1.88,6.31,3.7,9.44c5.39,9.24,2.41,24.47-17.31,27.09c-6.01,0.8-9.35,3.9-11.34,5.75
		l-0.01,0.01c-0.52,0.48-1.39,1.42-2.99,1.42c-0.92,0-1.81-0.35-2.51-0.97c-2.2-2-5.51-5.36-11.82-6.2
		C5.98,67.87,2.91,52.68,8.31,43.45c8.9-15.22,1.59-26.66-1.97-30.88c-1.08-1.28-1-3.14,0.18-4.33l4.9-4.95
		c1.37-1.39,3.64-1.23,4.83,0.3c5.24,6.74,15.12,7.32,21.12,1.43c1.48-1.45,3.79-1.45,5.27,0c6.03,5.92,15.91,5.28,21.12-1.43
		c1.2-1.54,3.47-1.68,4.83-0.3l4.9,4.95c1.18,1.19,1.25,3.05,0.18,4.33c-2.2,2.61-5.94,8.11-6.19,15.64
		c-0.02,0.65,0.49,1.19,1.13,1.21C69.25,29.44,69.79,28.93,69.82,28.29L69.82,28.29z"/>
</g>
</svg>
