<?xml version="1.0" encoding="utf-8"?>
<!-- Generator: Adobe Illustrator 25.0.0, SVG Export Plug-In . SVG Version: 6.00 Build 0)  -->
<svg version="1.1" id="Layer_1" xmlns="http://www.w3.org/2000/svg" xmlns:xlink="http://www.w3.org/1999/xlink" x="0px" y="0px"
	 viewBox="0 0 80 80" style="enable-background:new 0 0 80 80;" xml:space="preserve">
<style type="text/css">
	.st0{fill:#FDFDFD;}
</style>
<g>
	<path class="st0" d="M59.67,34.88c0.63,0.13,1.25-0.28,1.38-0.92c0.29-1.42,0.44-2.88,0.44-4.34c0-11.88-9.64-21.55-21.49-21.55
		c-11.85,0-21.49,9.67-21.49,21.55c0,11.88,9.64,21.55,21.49,21.55c8.08,0,15.4-4.47,19.1-11.68c0.3-0.58,0.07-1.29-0.5-1.58
		c-0.57-0.3-1.28-0.07-1.58,0.51c-3.3,6.42-9.83,10.4-17.02,10.4c-10.56,0-19.14-8.61-19.14-19.2s8.59-19.2,19.14-19.2
		s19.14,8.61,19.14,19.2c0,1.3-0.13,2.61-0.39,3.87C58.62,34.13,59.03,34.75,59.67,34.88L59.67,34.88z"/>
	<path class="st0" d="M45.13,30.59c-0.28,0.27-0.4,0.66-0.34,1.04l1.02,5.88l-5.26-2.79c-0.34-0.18-0.75-0.18-1.09,0l-5.26,2.79
		l1.02-5.88c0.07-0.38-0.06-0.77-0.34-1.04l-4.27-4.16l5.89-0.85c0.38-0.06,0.72-0.3,0.89-0.65L40,19.59l2.62,5.36
		c0.17,0.35,0.5,0.59,0.89,0.65l5.89,0.85L45.13,30.59z M53.04,25.25c-0.14-0.43-0.51-0.74-0.95-0.8l-7.64-1.1l-3.4-6.95
		c-0.39-0.86-1.72-0.86-2.1,0l-3.4,6.95l-7.64,1.1c-0.94,0.1-1.35,1.37-0.65,2.01l5.54,5.39l-1.32,7.63
		c-0.19,0.93,0.88,1.71,1.7,1.24L40,37.1l6.82,3.62c0.82,0.47,1.89-0.32,1.7-1.24l-1.32-7.63l5.54-5.39
		C53.06,26.14,53.18,25.67,53.04,25.25z"/>
	<path class="st0" d="M72.89,69.88l-11.46-19.9c5.02-5.31,8.1-12.48,8.1-20.35C69.53,13.29,56.28,0,40,0
		c-5.01,0-9.96,1.28-14.31,3.71c-0.57,0.32-0.77,1.03-0.46,1.6c0.31,0.57,1.03,0.77,1.59,0.46C30.83,3.53,35.39,2.35,40,2.35
		c14.99,0,27.19,12.23,27.19,27.27c0,15.04-12.2,27.27-27.19,27.27c-14.99,0-27.19-12.23-27.19-27.27c0-8.07,3.53-15.68,9.69-20.87
		c0.5-0.42,0.56-1.16,0.14-1.66c-0.42-0.5-1.16-0.56-1.65-0.14c-6.69,5.65-10.53,13.91-10.53,22.67c0,7.89,3.09,15.07,8.12,20.38
		l-3.24,5.64c-0.78,1.3,1.28,2.51,2.03,1.18l2.95-5.12c3.53,3.17,7.82,5.5,12.56,6.68L22.77,75.94l-2.59-8.17
		c-0.18-0.58-0.78-0.92-1.37-0.79l-8.35,1.84l4.17-7.25c0.32-0.56,0.13-1.28-0.43-1.61c-0.56-0.32-1.28-0.13-1.6,0.43l-5.5,9.56
		c-0.52,0.84,0.31,1.98,1.27,1.74l9.89-2.18l3.07,9.68c0.27,0.95,1.66,1.11,2.13,0.23L35.3,58.87c1.53,0.25,3.1,0.38,4.7,0.38
		c1.61,0,3.19-0.13,4.73-0.38l7.11,12.35c0.22,0.38,0.61,0.59,1.02,0.59c0.2,0,0.4-0.05,0.58-0.16c0.56-0.32,0.75-1.04,0.43-1.61
		l-6.72-11.67c4.74-1.19,9.02-3.52,12.55-6.69l9.83,17.08l-8.34-1.84c-0.59-0.13-1.18,0.21-1.37,0.79l-2.59,8.17l-0.63-1.09
		c-0.32-0.56-1.04-0.75-1.6-0.43c-0.56,0.32-0.75,1.04-0.43,1.61l1.95,3.39c0.47,0.88,1.86,0.72,2.13-0.23l3.07-9.68l9.89,2.18
		C72.58,71.86,73.41,70.72,72.89,69.88L72.89,69.88z"/>
</g>
</svg>
