<svg width="150" height="150" viewBox="0 0 150 150" fill="none" xmlns="http://www.w3.org/2000/svg">
<circle cx="75" cy="75" r="74" stroke="#33EFB0" stroke-opacity="0.5" stroke-width="2"/>
<path d="M89.8672 64.8828C90.2891 65.3516 90.5 65.8906 90.5 66.5C90.5 67.1094 90.2891 67.6484 89.8672 68.1172L71.8672 86.1172C71.3984 86.5391 70.8594 86.75 70.25 86.75C69.6406 86.75 69.1016 86.5391 68.6328 86.1172L59.6328 77.1172C59.2109 76.6484 59 76.1094 59 75.5C59 74.8906 59.2109 74.3516 59.6328 73.8828C60.1016 73.4609 60.6406 73.25 61.25 73.25C61.8594 73.25 62.3984 73.4609 62.8672 73.8828L70.1797 81.3359L86.6328 64.8828C87.1016 64.4609 87.6406 64.25 88.25 64.25C88.8594 64.25 89.3984 64.4609 89.8672 64.8828Z" fill="#33EFB0"/>
</svg>
